#!OML:ASF F:\VICON\USERDATA\INSTALL\rory3\rory3.ASF
:FULLY-SPECIFIED
:DEGREES
9
root -7.4108994465523415 17.57031432983555 2.6293543972607636 -6.360949938389695 70.519084313452 -21.602610003286088
lfemur -22.046998909908968 14.769690915720396 -2.276723575302083
ltibia 32.30439805696807
lfoot -13.22058378999472 7.84429800013411
ltoes -27.55869159413398
rfemur -36.11648713058149 3.972506492337575 16.34360477775701
rtibia 33.57469184196615
rfoot -10.013388551737831 6.389544121301965
rtoes 0.1669299779494402
lowerback 3.0672015164939817 1.4604212063136892 -8.856233194749356
upperback 3.186528826542946 1.8129412697555143 1.9614790277355183
thorax 1.2681929795596854 0.7430682708096951 6.995970511311175
lowerneck -13.750194220481578 4.501816447438088 1.7003031336191428
upperneck 38.51367874371778 9.84445533792778 -4.597398430487125
head 16.516076621619856 4.109145549831209 -0.44681198254289267
lclavicle -7.014205414800041e-15 -5.153636158975165e-15
lhumerus 25.221913093659765 -77.82848228087806 70.54949688181964
lradius 25.78110829120525
lwrist 33.94829280540886
lhand 16.035376868721123 61.03717792323884
lfingers 7.125020000000003
lthumb -139.17502357161948 266.0090107319719
rclavicle -7.014205414800041e-15 -5.153636158975165e-15
rhumerus -9.514415579013871 -1.7858148107516616 -104.06898168528204
rradius 38.277707725362134
rwrist -58.36758121189801
rhand -39.76950285763282 -12.919877901014218
rfingers 7.125020000000003
rthumb -12.745502907652632 -42.51087685393078
10
root -7.423839222596342 17.573914117370993 2.742924021622912 -6.672816237889066 67.30818441458527 -22.01521272516777
lfemur -20.783800022494564 16.25529030102782 -0.7039230406656332
ltibia 32.586897678147466
lfoot -12.675985884781426 9.56455845453658
ltoes -29.05909017614849
rfemur -36.216186404359256 4.612555618192051 18.321201985185937
rtibia 33.02639224335437
rfoot -9.877788137094795 8.619313701624444
rtoes 0.2329474945715262
lowerback 2.7347124193020305 0.8176469130868906 -9.342452969646821
upperback 3.216778810318452 0.9860770395305973 1.3823502716955138
thorax 1.6465820515294474 0.30504101733365396 6.68692116428744
lowerneck -13.114595597497614 6.001575159040614 2.967138901872469
upperneck 37.563279237228244 11.78189402109227 -5.256437584077504
head 16.126377593716796 4.992214563846602 -0.6340463436221668
lclavicle -7.014204993500499e-15 -5.153635875945432e-15
lhumerus 34.083109136606666 -78.38728310716472 62.293601054138634
lradius 25.78930820520798
lwrist 30.598395068276965
lhand 16.697175872679004 55.98128066887247
lfingers 7.125020000000003
lthumb -138.55302308417706 260.7540067641253
rclavicle -7.014204993500499e-15 -5.153635875945432e-15
rhumerus -10.28848391408259 -1.2620755589192623 -103.26098096684606
rradius 41.900907613515884
rwrist -61.03507956693615
rhand -42.99990117225427 -11.720080321173565
rfingers 7.125020000000003
rthumb -15.858201156408336 -41.090578088424785
11
root -7.430029151100232 17.55511518210183 2.8614036167125856 -6.532534477881555 64.29888766912924 -21.761013345162866
lfemur -18.850301715481148 17.036289351742006 0.7821378097987717
ltibia 32.97819706257556
lfoot -13.183085502093505 10.829886832941451
ltoes -28.326289745965784
rfemur -36.17728699610952 5.1833850724644215 19.987199626576448
rtibia 32.82039279138749
rfoot -9.274808199716224 11.18879291864369
rtoes 2.980342377864691
lowerback 2.4969927812842316 -0.23672414692570642 -10.30119205272767
upperback 3.35903885323573 -0.39157519713549416 1.1556307469411355
thorax 2.203270893919372 -0.43589186234478894 7.009850518470528
lowerneck -12.678596382942942 7.8665943992501415 3.008918747362792
upperneck 36.51478037377023 14.52969327502069 -5.712936986805543
head 15.727979235314624 6.071573568909292 -0.37121964989237877
lclavicle -7.014205269087273e-15 -5.153636046661791e-15
lhumerus 44.129905732058035 -77.74408187465642 53.441105981108514
lradius 25.63430758847497
lwrist 27.537396795967304
lhand 15.105477416398427 50.5730846053778
lfingers 7.125020000000003
lthumb -140.04902088090992 255.81400463722233
rclavicle -7.014205269087273e-15 -5.153636046661791e-15
rhumerus -10.93568725327551 -0.35079783748064663 -102.12198146208249
rradius 45.797505138394655
rwrist -62.74727925887062
rhand -45.136199956154236 -13.111678629606061
rfingers 7.125020000000003
rthumb -17.914699926966968 -42.30647642525415
12
root -7.445718856448625 17.54501574575734 3.0030530440815584 -6.676435111812893 61.464487035674544 -22.137409320275353
lfemur -17.856002444437465 17.891590177813793 2.6174319280877096
ltibia 33.62969626553558
lfoot -13.32088372854847 11.460086607494727
ltoes -22.45559216628339
rfemur -36.221886311008134 6.206234116859624 21.79579712355307
rtibia 32.56469305631418
rfoot -8.738829740631944 13.277392083872725
rtoes 5.7862802629089245
lowerback 2.0647634046909715 -1.3060560639205536 -10.923991828590184
upperback 3.2274088642260796 -1.7721259031189533 0.815178463731298
thorax 2.5981299692860436 -1.1521058427883644 6.98617051653424
lowerneck -11.742497980604401 9.543643495699046 3.365197585670471
upperneck 35.28658181459946 16.860792390766246 -6.17575645139002
head 15.162480180138669 7.070872597377178 -0.2752544601802259
lclavicle -7.014204895302409e-15 -5.153636289258679e-15
lhumerus 53.19620331366194 -76.98388456944686 45.40431029677995
lradius 25.92270731250305
lwrist 24.07539902034318
lhand 12.960080544645345 47.34488507774513
lfingers 7.125020000000003
lthumb -142.0720214102586 253.16401202287904
rclavicle -7.014204895302409e-15 -5.153636289258679e-15
rhumerus -11.610488551364732 -0.569148396053194 -101.08198204012717
rradius 49.98710463254384
rwrist -63.23467893499931
rhand -48.71709780977918 -8.962730609072086
rfingers 7.125020000000003
rthumb -21.35729781140499 -37.80578105465945
